# xmcd CD database file
#
# Track frame offsets:
#	150
#	12327
#	26470
#	43802
#	71912
#	92015
#	103447
#	121570
#	140675
#	165362
#	182822
#	197970
#	220240
#	232185
#
# Disc length: 3331 seconds
#
# Revision: 0
# Processed by: cddbd v1.4PL0 Copyright (c) Steve Scherf et al.
# Submitted via: CDex 1.50Beta7
#
DISCID=cc0d010e
DTITLE=Ella Fitzgerald - JAZZ 11
DYEAR=1900
DGENRE=Jazz
TTITLE0=A Tisket A Tasket
TTITLE1=Oh! Lady, Be Good
TTITLE2=Drop Me Off In Harlem
TTITLE3=I Got It Bad And That Ain't Good
TTITLE4=Body And Soul
TTITLE5=I've Got A Crush on You
TTITLE6=Love Is Here To Stay
TTITLE7=It Don't Mean A Thing
TTITLE8=Prelude To A Kiss
TTITLE9=These Foolish Things
TTITLE10=Just One Of Those Things
TTITLE11=I Love You Porgy
TTITLE12=The Lady Is A Tramp
TTITLE13=Sophisticated Lady
EXTD=
EXTT0=
EXTT1=
EXTT2=
EXTT3=
EXTT4=
EXTT5=
EXTT6=
EXTT7=
EXTT8=
EXTT9=
EXTT10=
EXTT11=
EXTT12=
EXTT13=
PLAYORDER=
